<svg xmlns="http://www.w3.org/2000/svg" fill="none" viewBox="0 0 281 28" height="28" width="281">
<g clip-path="url(#clip0_12257_38756)">
<path fill="black" d="M49.1895 26.1541V10.3179C49.1895 9.95194 48.8857 9.65856 48.5143 9.65856H37.7826C37.4079 9.65856 37.1074 9.36188 37.1074 8.99927V2.02065C37.1074 1.65474 37.4112 1.36136 37.7826 1.36136H70.7576C71.1323 1.36136 71.4328 1.65804 71.4328 2.02065V8.99927C71.4328 9.36517 71.129 9.65856 70.7576 9.65856H60.0259C59.6512 9.65856 59.3507 9.95524 59.3507 10.3179V26.1541C59.3507 26.52 59.0469 26.8134 58.6755 26.8134H49.8647C49.4899 26.8134 49.1895 26.5167 49.1895 26.1541Z"></path>
<path fill="black" d="M78.0627 1.36136H89.3379C89.5877 1.36136 89.8139 1.49651 89.9321 1.71078L103.189 25.8442C103.432 26.2826 103.105 26.8167 102.595 26.8167H92.7138C92.4504 26.8167 92.2108 26.6683 92.0994 26.4343L90.4047 22.8444C90.2933 22.6104 90.0536 22.462 89.7903 22.462H77.6036C77.3403 22.462 77.1006 22.6104 76.9892 22.8444L75.2945 26.4343C75.1831 26.6683 74.9434 26.8167 74.6801 26.8167H64.7991C64.2893 26.8167 63.9619 26.2859 64.2049 25.8442L77.4652 1.70749C77.5833 1.49322 77.8129 1.35806 78.0593 1.35806L78.0627 1.36136ZM81.1786 16.2449H86.2187C86.7115 16.2449 87.039 15.7438 86.8331 15.3087L84.3215 10.0146C84.0784 9.50692 83.3391 9.50362 83.096 10.0146L80.5709 15.3087C80.3616 15.7471 80.6891 16.2482 81.1819 16.2482L81.1786 16.2449Z"></path>
<path fill="black" d="M108.05 26.1541V10.2948C108.05 9.92887 107.746 9.63548 107.375 9.63548H96.6429C96.2682 9.63548 95.9678 9.3388 95.9678 8.97619V2.02065C95.9678 1.65474 96.2716 1.36136 96.6429 1.36136H129.618C129.993 1.36136 130.293 1.65804 130.293 2.02065V8.97619C130.293 9.3421 129.989 9.63548 129.618 9.63548H118.886C118.512 9.63548 118.211 9.93216 118.211 10.2948V26.1541C118.211 26.52 117.907 26.8134 117.536 26.8134H108.725C108.35 26.8134 108.05 26.5167 108.05 26.1541Z"></path>
<path fill="black" d="M132.65 1.36136H161.803C162.178 1.36136 162.479 1.65804 162.479 2.02065V7.21588C162.479 7.58179 162.175 7.87517 161.803 7.87517H142.811C142.436 7.87517 142.136 8.17185 142.136 8.53446V10.3772C142.136 10.7431 142.44 11.0365 142.811 11.0365H160.213C160.588 11.0365 160.889 11.3332 160.889 11.6958V16.2647C160.889 16.6306 160.585 16.924 160.213 16.924H142.811C142.436 16.924 142.136 17.2206 142.136 17.5833V19.6139C142.136 19.9798 142.44 20.2732 142.811 20.2732H161.803C162.178 20.2732 162.479 20.5699 162.479 20.9325V26.1475C162.479 26.5134 162.175 26.8068 161.803 26.8068H132.65C132.275 26.8068 131.975 26.5101 131.975 26.1475V2.02065C131.975 1.65474 132.278 1.36136 132.65 1.36136Z"></path>
<path fill="black" d="M251.171 1.39761H280.325C280.7 1.39761 281 1.6943 281 2.05691V7.25213C281 7.61804 280.696 7.91143 280.325 7.91143H261.332C260.958 7.91143 260.657 8.20811 260.657 8.57072V10.4134C260.657 10.7793 260.961 11.0727 261.332 11.0727H278.735C279.11 11.0727 279.41 11.3694 279.41 11.732V16.3009C279.41 16.6668 279.106 16.9602 278.735 16.9602H261.332C260.958 16.9602 260.657 17.2569 260.657 17.6195V19.6501C260.657 20.016 260.961 20.3094 261.332 20.3094H280.325C280.7 20.3094 281 20.6061 281 20.9687V26.1837C281 26.5496 280.696 26.843 280.325 26.843H251.171C250.797 26.843 250.496 26.5463 250.496 26.1837V2.05691C250.496 1.691 250.8 1.39761 251.171 1.39761Z"></path>
<path fill="black" d="M17.9083 11.1222C25.1798 11.4815 35.4018 11.976 35.3815 18.3546C35.3815 25.6266 28.8932 27.3507 17.6956 27.3507C7.96649 27.3507 0.00292969 26.276 0.00292969 19.1524C0.00292969 18.7337 0.235861 18.3546 0.664591 18.3546H10.2891C10.5186 18.3546 10.7212 18.4733 10.8528 18.6546C12.1052 20.3754 14.6844 20.8336 17.6956 20.8336C20.8554 20.8336 24.7342 20.3226 24.7342 18.3513C24.7342 17.2338 21.5744 17.0624 17.4796 16.8745C10.208 16.5185 0.00630551 16.3306 0.00630551 8.66302C0.00630551 1.39103 8.76656 0.649323 17.6922 0.649323C26.6179 0.649323 35.4153 1.55585 35.4153 8.86741C35.4153 9.28606 35.1824 9.66515 34.7536 9.66515H25.1022C24.8726 9.66515 24.6667 9.54318 24.535 9.35858C23.2826 7.60816 20.7035 7.18291 17.6922 7.18291C14.5325 7.18291 10.6536 7.63783 10.6536 9.66515C10.6536 10.7827 13.8134 10.9343 17.9083 11.1222Z"></path>
<path fill="black" d="M182.159 11.1222C189.431 11.4815 199.653 11.976 199.632 18.3546C199.632 25.6266 193.144 27.3507 181.947 27.3507C172.217 27.3507 164.254 26.276 164.254 19.1524C164.254 18.7337 164.487 18.3546 164.916 18.3546H174.54C174.77 18.3546 174.972 18.4733 175.104 18.6546C176.356 20.3754 178.935 20.8336 181.947 20.8336C185.106 20.8336 188.985 20.3226 188.985 18.3513C188.985 17.2338 185.825 17.0624 181.731 16.8745C174.459 16.5152 164.257 16.3273 164.257 8.65643C164.257 1.38444 173.018 0.642731 181.943 0.642731C190.869 0.642731 199.666 1.54926 199.666 8.86081C199.666 9.27946 199.433 9.65856 199.005 9.65856H189.353C189.124 9.65856 188.918 9.53659 188.786 9.35199C187.534 7.60157 184.954 7.17632 181.943 7.17632C178.783 7.17632 174.905 7.63123 174.905 9.65856C174.905 10.7761 178.064 10.9277 182.159 11.1156V11.1222Z"></path>
<path fill="black" d="M211.492 2.02395V26.1475C211.492 26.5134 211.188 26.8134 210.81 26.8134H202.009C201.634 26.8134 201.327 26.5167 201.327 26.1475V2.02395C201.327 1.65804 201.631 1.35806 202.009 1.35806H210.81C211.185 1.35806 211.492 1.65474 211.492 2.02395Z"></path>
<path fill="black" d="M236.378 1.39762C243.535 1.30202 248.849 7.17303 248.791 14.122C248.849 21.0347 243.535 26.9419 236.378 26.8463H213.862C213.487 26.8463 213.187 26.5496 213.187 26.187V2.05691C213.187 1.69101 213.49 1.39762 213.862 1.39762H236.378ZM233.823 9.69482H224.023C223.648 9.69482 223.348 9.9915 223.348 10.3541V17.7118C223.348 18.0777 223.652 18.3711 224.023 18.3711H234.478C237.162 18.3711 238.66 16.6042 238.606 13.9901C238.556 11.4683 236.409 9.69152 233.823 9.69152V9.69482Z"></path>
</g>
<defs>
<clipPath id="clip0_12257_38756">
<rect transform="translate(0 0.649323)" fill="white" height="26.7014" width="281"></rect>
</clipPath>
</defs>
</svg>
